<svg width="160" height="319" viewBox="0 0 160 319" fill="none" xmlns="http://www.w3.org/2000/svg">
<path d="M39.2303 11.706L29.4435 23.3478V120.32V217.292L31.6183 213.007C32.7697 210.64 34.7527 207.314 36.032 205.651C38.3347 202.452 44.4115 196.504 47.5458 194.265L49.2729 192.985L49.145 96.5248L48.9531 0.000259399L39.2303 11.706Z" fill="#F7C35B"/>
<path d="M64.8187 22.7089L53.113 34.9264V112.773V190.683L57.7825 188.509C65.7782 184.799 69.6162 184.031 80.2985 184.031C88.614 184.031 90.533 184.223 94.6908 185.502C118.806 193.05 134.35 213.711 134.35 238.146C134.35 253.178 129.232 265.651 118.742 276.142C107.868 287.08 95.3305 292.389 80.5543 292.453C64.7548 292.453 52.3454 287.336 41.2153 276.206C35.2665 270.257 32.2601 265.843 29.2537 258.551C25.4797 249.404 25.6076 254.393 25.6076 153.647V61.2164L12.8144 74.0096L0.0212426 86.8027V167.08C-0.0427233 246.078 -0.0427234 247.485 1.2366 253.882C4.56282 270.065 11.5991 283.114 23.3048 294.756C35.2025 306.59 47.9317 313.498 64.9466 317.144C71.9829 318.679 87.9744 318.679 95.0106 317.144C133.71 308.764 160 276.973 160 238.402C160 224.521 157.249 213.263 150.981 201.046C137.74 175.523 109.915 158.125 82.0895 158.125H76.7803L76.6524 84.3081L76.4605 10.5554L64.8187 22.7089Z" fill="#FFCC63"/>
<rect x="30.6232" y="189.221" width="98.4401" height="98.4401" rx="49.22" fill="url(#paint0_linear)"/>
<defs>
<linearGradient id="paint0_linear" x1="54.0847" y1="209.401" x2="114.297" y2="264.528" gradientUnits="userSpaceOnUse">
<stop stop-color="#B07316"/>
<stop offset="0.229167" stop-color="#FFCC63"/>
<stop offset="0.505208" stop-color="#F2BE57"/>
<stop offset="0.776042" stop-color="#AD6F13"/>
<stop offset="1" stop-color="#E7B04B"/>
</linearGradient>
</defs>
</svg>
