<svg width="1442" height="301" viewBox="0 0 1442 301" fill="none" xmlns="http://www.w3.org/2000/svg">
<rect x="11.2412" y="-3" width="30.1205" height="30.1205" rx="15.0602" fill="white" fill-opacity="0.78"/>
<rect x="75" y="-3" width="30.1205" height="30.1205" rx="15.0602" fill="white" fill-opacity="0.78"/>
<rect x="143.121" y="-3" width="30.1205" height="30.1205" rx="15.0602" fill="white" fill-opacity="0.78"/>
<rect x="211.241" y="-3" width="30.1205" height="30.1205" rx="15.0602" fill="white" fill-opacity="0.78"/>
<rect x="11.2412" y="43" width="30.1205" height="30.1205" rx="15.0602" fill="white" fill-opacity="0.78"/>
<rect x="11.2412" y="88" width="30.1205" height="30.1205" rx="15.0602" fill="white" fill-opacity="0.78"/>
<rect x="75" y="43" width="30.1205" height="30.1205" rx="15.0602" fill="white" fill-opacity="0.78"/>
<rect x="143.121" y="43" width="30.1205" height="30.1205" rx="15.0602" fill="white" fill-opacity="0.78"/>
<rect x="211.241" y="43" width="30.1205" height="30.1205" rx="15.0602" fill="white" fill-opacity="0.78"/>
<rect x="75" y="88" width="30.1205" height="30.1205" rx="15.0602" fill="white" fill-opacity="0.78"/>
<rect x="143.121" y="88" width="30.1205" height="30.1205" rx="15.0602" fill="white" fill-opacity="0.78"/>
<rect x="211.241" y="88" width="30.1205" height="30.1205" rx="15.0602" fill="white" fill-opacity="0.78"/>
<rect x="11.2412" y="134" width="30.1205" height="30.1205" rx="15.0602" fill="white" fill-opacity="0.78"/>
<rect x="11.2412" y="179" width="30.1205" height="30.1205" rx="15.0602" fill="white" fill-opacity="0.78"/>
<rect x="75" y="134" width="30.1205" height="30.1205" rx="15.0602" fill="white" fill-opacity="0.78"/>
<rect x="143.121" y="134" width="30.1205" height="30.1205" rx="15.0602" fill="white" fill-opacity="0.78"/>
<rect x="211.241" y="134" width="30.1205" height="30.1205" rx="15.0602" fill="white" fill-opacity="0.78"/>
<rect x="75" y="179" width="30.1205" height="30.1205" rx="15.0602" fill="white" fill-opacity="0.78"/>
<rect x="143.121" y="179" width="30.1205" height="30.1205" rx="15.0602" fill="white" fill-opacity="0.78"/>
<rect x="211.241" y="179" width="30.1205" height="30.1205" rx="15.0602" fill="white" fill-opacity="0.78"/>
<rect x="11.2412" y="225" width="30.1205" height="30.1205" rx="15.0602" fill="white" fill-opacity="0.78"/>
<rect x="11.2412" y="270" width="30.1205" height="30.1205" rx="15.0602" fill="white" fill-opacity="0.78"/>
<rect x="75" y="225" width="30.1205" height="30.1205" rx="15.0602" fill="white" fill-opacity="0.78"/>
<rect x="143.121" y="225" width="30.1205" height="30.1205" rx="15.0602" fill="white" fill-opacity="0.78"/>
<rect x="211.241" y="225" width="30.1205" height="30.1205" rx="15.0602" fill="white" fill-opacity="0.78"/>
<rect x="75" y="270" width="30.1205" height="30.1205" rx="15.0602" fill="white" fill-opacity="0.78"/>
<rect x="143.121" y="270" width="30.1205" height="30.1205" rx="15.0602" fill="white" fill-opacity="0.78"/>
<rect x="211.241" y="270" width="30.1205" height="30.1205" rx="15.0602" fill="white" fill-opacity="0.78"/>
<rect x="275" y="-3" width="30.1205" height="30.1205" rx="15.0602" fill="white" fill-opacity="0.78"/>
<rect x="343.121" y="-3" width="30.1205" height="30.1205" rx="15.0602" fill="white" fill-opacity="0.78"/>
<rect x="411.241" y="-3" width="30.1205" height="30.1205" rx="15.0602" fill="white" fill-opacity="0.78"/>
<rect x="475" y="-3" width="30.1205" height="30.1205" rx="15.0602" fill="white" fill-opacity="0.78"/>
<rect x="543.121" y="-3" width="30.1205" height="30.1205" rx="15.0602" fill="white" fill-opacity="0.78"/>
<rect x="611.241" y="-3" width="30.1205" height="30.1205" rx="15.0602" fill="white" fill-opacity="0.78"/>
<rect x="275" y="43" width="30.1205" height="30.1205" rx="15.0602" fill="white" fill-opacity="0.78"/>
<rect x="343.121" y="43" width="30.1205" height="30.1205" rx="15.0602" fill="white" fill-opacity="0.78"/>
<rect x="411.241" y="43" width="30.1205" height="30.1205" rx="15.0602" fill="white" fill-opacity="0.78"/>
<rect x="275" y="88" width="30.1205" height="30.1205" rx="15.0602" fill="white" fill-opacity="0.78"/>
<rect x="343.121" y="88" width="30.1205" height="30.1205" rx="15.0602" fill="white" fill-opacity="0.78"/>
<rect x="411.241" y="88" width="30.1205" height="30.1205" rx="15.0602" fill="white" fill-opacity="0.78"/>
<rect x="475" y="43" width="30.1205" height="30.1205" rx="15.0602" fill="white" fill-opacity="0.78"/>
<rect x="543.121" y="43" width="30.1205" height="30.1205" rx="15.0602" fill="white" fill-opacity="0.78"/>
<rect x="611.241" y="43" width="30.1205" height="30.1205" rx="15.0602" fill="white" fill-opacity="0.78"/>
<rect x="475" y="88" width="30.1205" height="30.1205" rx="15.0602" fill="white" fill-opacity="0.78"/>
<rect x="543.121" y="88" width="30.1205" height="30.1205" rx="15.0602" fill="white" fill-opacity="0.78"/>
<rect x="611.241" y="88" width="30.1205" height="30.1205" rx="15.0602" fill="white" fill-opacity="0.78"/>
<rect x="275" y="134" width="30.1205" height="30.1205" rx="15.0602" fill="white" fill-opacity="0.78"/>
<rect x="343.121" y="134" width="30.1205" height="30.1205" rx="15.0602" fill="white" fill-opacity="0.78"/>
<rect x="411.241" y="134" width="30.1205" height="30.1205" rx="15.0602" fill="white" fill-opacity="0.78"/>
<rect x="275" y="179" width="30.1205" height="30.1205" rx="15.0602" fill="white" fill-opacity="0.78"/>
<rect x="343.121" y="179" width="30.1205" height="30.1205" rx="15.0602" fill="white" fill-opacity="0.78"/>
<rect x="411.241" y="179" width="30.1205" height="30.1205" rx="15.0602" fill="white" fill-opacity="0.78"/>
<rect x="475" y="134" width="30.1205" height="30.1205" rx="15.0602" fill="white" fill-opacity="0.78"/>
<rect x="543.121" y="134" width="30.1205" height="30.1205" rx="15.0602" fill="white" fill-opacity="0.78"/>
<rect x="611.241" y="134" width="30.1205" height="30.1205" rx="15.0602" fill="white" fill-opacity="0.78"/>
<rect x="475" y="179" width="30.1205" height="30.1205" rx="15.0602" fill="white" fill-opacity="0.78"/>
<rect x="543.121" y="179" width="30.1205" height="30.1205" rx="15.0602" fill="white" fill-opacity="0.78"/>
<rect x="611.241" y="179" width="30.1205" height="30.1205" rx="15.0602" fill="white" fill-opacity="0.78"/>
<rect x="275" y="225" width="30.1205" height="30.1205" rx="15.0602" fill="white" fill-opacity="0.78"/>
<rect x="343.121" y="225" width="30.1205" height="30.1205" rx="15.0602" fill="white" fill-opacity="0.78"/>
<rect x="411.241" y="225" width="30.1205" height="30.1205" rx="15.0602" fill="white" fill-opacity="0.78"/>
<rect x="275" y="270" width="30.1205" height="30.1205" rx="15.0602" fill="white" fill-opacity="0.78"/>
<rect x="343.121" y="270" width="30.1205" height="30.1205" rx="15.0602" fill="white" fill-opacity="0.78"/>
<rect x="411.241" y="270" width="30.1205" height="30.1205" rx="15.0602" fill="white" fill-opacity="0.78"/>
<rect x="475" y="225" width="30.1205" height="30.1205" rx="15.0602" fill="white" fill-opacity="0.78"/>
<rect x="543.121" y="225" width="30.1205" height="30.1205" rx="15.0602" fill="white" fill-opacity="0.78"/>
<rect x="611.241" y="225" width="30.1205" height="30.1205" rx="15.0602" fill="white" fill-opacity="0.78"/>
<rect x="475" y="270" width="30.1205" height="30.1205" rx="15.0602" fill="white" fill-opacity="0.78"/>
<rect x="543.121" y="270" width="30.1205" height="30.1205" rx="15.0602" fill="white" fill-opacity="0.78"/>
<rect x="611.241" y="270" width="30.1205" height="30.1205" rx="15.0602" fill="white" fill-opacity="0.78"/>
<rect x="675" y="-3" width="30.1205" height="30.1205" rx="15.0602" fill="white" fill-opacity="0.78"/>
<rect x="743.121" y="-3" width="30.1205" height="30.1205" rx="15.0602" fill="white" fill-opacity="0.78"/>
<rect x="811.241" y="-3" width="30.1205" height="30.1205" rx="15.0602" fill="white" fill-opacity="0.78"/>
<rect x="875" y="-3" width="30.1205" height="30.1205" rx="15.0602" fill="white" fill-opacity="0.78"/>
<rect x="943.121" y="-3" width="30.1205" height="30.1205" rx="15.0602" fill="white" fill-opacity="0.78"/>
<rect x="1011.24" y="-3" width="30.1205" height="30.1205" rx="15.0602" fill="white" fill-opacity="0.78"/>
<rect x="675" y="43" width="30.1205" height="30.1205" rx="15.0602" fill="white" fill-opacity="0.78"/>
<rect x="743.121" y="43" width="30.1205" height="30.1205" rx="15.0602" fill="white" fill-opacity="0.78"/>
<rect x="811.241" y="43" width="30.1205" height="30.1205" rx="15.0602" fill="white" fill-opacity="0.78"/>
<rect x="675" y="88" width="30.1205" height="30.1205" rx="15.0602" fill="white" fill-opacity="0.78"/>
<rect x="743.121" y="88" width="30.1205" height="30.1205" rx="15.0602" fill="white" fill-opacity="0.78"/>
<rect x="811.241" y="88" width="30.1205" height="30.1205" rx="15.0602" fill="white" fill-opacity="0.78"/>
<rect x="875" y="43" width="30.1205" height="30.1205" rx="15.0602" fill="white" fill-opacity="0.78"/>
<rect x="943.121" y="43" width="30.1205" height="30.1205" rx="15.0602" fill="white" fill-opacity="0.78"/>
<rect x="1011.24" y="43" width="30.1205" height="30.1205" rx="15.0602" fill="white" fill-opacity="0.78"/>
<rect x="875" y="88" width="30.1205" height="30.1205" rx="15.0602" fill="white" fill-opacity="0.78"/>
<rect x="943.121" y="88" width="30.1205" height="30.1205" rx="15.0602" fill="white" fill-opacity="0.78"/>
<rect x="1011.24" y="88" width="30.1205" height="30.1205" rx="15.0602" fill="white" fill-opacity="0.78"/>
<rect x="675" y="134" width="30.1205" height="30.1205" rx="15.0602" fill="white" fill-opacity="0.78"/>
<rect x="743.121" y="134" width="30.1205" height="30.1205" rx="15.0602" fill="white" fill-opacity="0.78"/>
<rect x="811.241" y="134" width="30.1205" height="30.1205" rx="15.0602" fill="white" fill-opacity="0.78"/>
<rect x="675" y="179" width="30.1205" height="30.1205" rx="15.0602" fill="white" fill-opacity="0.78"/>
<rect x="743.121" y="179" width="30.1205" height="30.1205" rx="15.0602" fill="white" fill-opacity="0.78"/>
<rect x="811.241" y="179" width="30.1205" height="30.1205" rx="15.0602" fill="white" fill-opacity="0.78"/>
<rect x="875" y="134" width="30.1205" height="30.1205" rx="15.0602" fill="white" fill-opacity="0.78"/>
<rect x="943.121" y="134" width="30.1205" height="30.1205" rx="15.0602" fill="white" fill-opacity="0.78"/>
<rect x="1011.24" y="134" width="30.1205" height="30.1205" rx="15.0602" fill="white" fill-opacity="0.78"/>
<rect x="875" y="179" width="30.1205" height="30.1205" rx="15.0602" fill="white" fill-opacity="0.78"/>
<rect x="943.121" y="179" width="30.1205" height="30.1205" rx="15.0602" fill="white" fill-opacity="0.78"/>
<rect x="1011.24" y="179" width="30.1205" height="30.1205" rx="15.0602" fill="white" fill-opacity="0.78"/>
<rect x="675" y="225" width="30.1205" height="30.1205" rx="15.0602" fill="white" fill-opacity="0.78"/>
<rect x="743.121" y="225" width="30.1205" height="30.1205" rx="15.0602" fill="white" fill-opacity="0.78"/>
<rect x="811.241" y="225" width="30.1205" height="30.1205" rx="15.0602" fill="white" fill-opacity="0.78"/>
<rect x="675" y="270" width="30.1205" height="30.1205" rx="15.0602" fill="white" fill-opacity="0.78"/>
<rect x="743.121" y="270" width="30.1205" height="30.1205" rx="15.0602" fill="white" fill-opacity="0.78"/>
<rect x="811.241" y="270" width="30.1205" height="30.1205" rx="15.0602" fill="white" fill-opacity="0.78"/>
<rect x="875" y="225" width="30.1205" height="30.1205" rx="15.0602" fill="white" fill-opacity="0.78"/>
<rect x="943.121" y="225" width="30.1205" height="30.1205" rx="15.0602" fill="white" fill-opacity="0.78"/>
<rect x="1011.24" y="225" width="30.1205" height="30.1205" rx="15.0602" fill="white" fill-opacity="0.78"/>
<rect x="875" y="270" width="30.1205" height="30.1205" rx="15.0602" fill="white" fill-opacity="0.78"/>
<rect x="943.121" y="270" width="30.1205" height="30.1205" rx="15.0602" fill="white" fill-opacity="0.78"/>
<rect x="1011.24" y="270" width="30.1205" height="30.1205" rx="15.0602" fill="white" fill-opacity="0.78"/>
<rect x="1075" y="-3" width="30.1205" height="30.1205" rx="15.0602" fill="white" fill-opacity="0.78"/>
<rect x="1143.12" y="-3" width="30.1205" height="30.1205" rx="15.0602" fill="white" fill-opacity="0.78"/>
<rect x="1211.24" y="-3" width="30.1205" height="30.1205" rx="15.0602" fill="white" fill-opacity="0.78"/>
<rect x="1275" y="-3" width="30.1205" height="30.1205" rx="15.0602" fill="white" fill-opacity="0.78"/>
<rect x="1343.12" y="-3" width="30.1205" height="30.1205" rx="15.0602" fill="white" fill-opacity="0.78"/>
<rect x="1411.24" y="-3" width="30.1205" height="30.1205" rx="15.0602" fill="white" fill-opacity="0.78"/>
<rect x="1075" y="43" width="30.1205" height="30.1205" rx="15.0602" fill="white" fill-opacity="0.78"/>
<rect x="1143.12" y="43" width="30.1205" height="30.1205" rx="15.0602" fill="white" fill-opacity="0.78"/>
<rect x="1211.24" y="43" width="30.1205" height="30.1205" rx="15.0602" fill="white" fill-opacity="0.78"/>
<rect x="1075" y="88" width="30.1205" height="30.1205" rx="15.0602" fill="white" fill-opacity="0.78"/>
<rect x="1143.12" y="88" width="30.1205" height="30.1205" rx="15.0602" fill="white" fill-opacity="0.78"/>
<rect x="1211.24" y="88" width="30.1205" height="30.1205" rx="15.0602" fill="white" fill-opacity="0.78"/>
<rect x="1275" y="43" width="30.1205" height="30.1205" rx="15.0602" fill="white" fill-opacity="0.78"/>
<rect x="1343.12" y="43" width="30.1205" height="30.1205" rx="15.0602" fill="white" fill-opacity="0.78"/>
<rect x="1411.24" y="43" width="30.1205" height="30.1205" rx="15.0602" fill="white" fill-opacity="0.78"/>
<rect x="1275" y="88" width="30.1205" height="30.1205" rx="15.0602" fill="white" fill-opacity="0.78"/>
<rect x="1343.12" y="88" width="30.1205" height="30.1205" rx="15.0602" fill="white" fill-opacity="0.78"/>
<rect x="1411.24" y="88" width="30.1205" height="30.1205" rx="15.0602" fill="white" fill-opacity="0.78"/>
<rect x="1075" y="134" width="30.1205" height="30.1205" rx="15.0602" fill="white" fill-opacity="0.78"/>
<rect x="1143.12" y="134" width="30.1205" height="30.1205" rx="15.0602" fill="white" fill-opacity="0.78"/>
<rect x="1211.24" y="134" width="30.1205" height="30.1205" rx="15.0602" fill="white" fill-opacity="0.78"/>
<rect x="1075" y="179" width="30.1205" height="30.1205" rx="15.0602" fill="white" fill-opacity="0.78"/>
<rect x="1143.12" y="179" width="30.1205" height="30.1205" rx="15.0602" fill="white" fill-opacity="0.78"/>
<rect x="1211.24" y="179" width="30.1205" height="30.1205" rx="15.0602" fill="white" fill-opacity="0.78"/>
<rect x="1275" y="134" width="30.1205" height="30.1205" rx="15.0602" fill="white" fill-opacity="0.78"/>
<rect x="1343.12" y="134" width="30.1205" height="30.1205" rx="15.0602" fill="white" fill-opacity="0.78"/>
<rect x="1411.24" y="134" width="30.1205" height="30.1205" rx="15.0602" fill="white" fill-opacity="0.78"/>
<rect x="1275" y="179" width="30.1205" height="30.1205" rx="15.0602" fill="white" fill-opacity="0.78"/>
<rect x="1343.12" y="179" width="30.1205" height="30.1205" rx="15.0602" fill="white" fill-opacity="0.78"/>
<rect x="1411.24" y="179" width="30.1205" height="30.1205" rx="15.0602" fill="white" fill-opacity="0.78"/>
<rect x="1075" y="225" width="30.1205" height="30.1205" rx="15.0602" fill="white" fill-opacity="0.78"/>
<rect x="1143.12" y="225" width="30.1205" height="30.1205" rx="15.0602" fill="white" fill-opacity="0.78"/>
<rect x="1211.24" y="225" width="30.1205" height="30.1205" rx="15.0602" fill="white" fill-opacity="0.78"/>
<rect x="1075" y="270" width="30.1205" height="30.1205" rx="15.0602" fill="white" fill-opacity="0.78"/>
<rect x="1143.12" y="270" width="30.1205" height="30.1205" rx="15.0602" fill="white" fill-opacity="0.78"/>
<rect x="1211.24" y="270" width="30.1205" height="30.1205" rx="15.0602" fill="white" fill-opacity="0.78"/>
<rect x="1275" y="225" width="30.1205" height="30.1205" rx="15.0602" fill="white" fill-opacity="0.78"/>
<rect x="1343.12" y="225" width="30.1205" height="30.1205" rx="15.0602" fill="white" fill-opacity="0.78"/>
<rect x="1411.24" y="225" width="30.1205" height="30.1205" rx="15.0602" fill="white" fill-opacity="0.78"/>
<rect x="1275" y="270" width="30.1205" height="30.1205" rx="15.0602" fill="white" fill-opacity="0.78"/>
<rect x="1343.12" y="270" width="30.1205" height="30.1205" rx="15.0602" fill="white" fill-opacity="0.78"/>
<rect x="1411.24" y="270" width="30.1205" height="30.1205" rx="15.0602" fill="white" fill-opacity="0.78"/>
</svg>
