<svg width="60" height="61" viewBox="0 0 60 61" fill="none" xmlns="http://www.w3.org/2000/svg">
<path fill-rule="evenodd" clip-rule="evenodd" d="M26.9623 58.7465C26.5632 58.3485 26.2466 57.8756 26.0306 57.355C25.8146 56.8344 25.7034 56.2763 25.7034 55.7126C25.7034 55.149 25.8146 54.5909 26.0306 54.0703C26.2466 53.5497 26.5632 53.0768 26.9623 52.6787L49.648 30.0016L26.9623 7.32449C26.5639 6.92607 26.2478 6.45308 26.0322 5.93252C25.8166 5.41196 25.7056 4.85403 25.7056 4.29059C25.7056 3.72714 25.8166 3.16921 26.0322 2.64865C26.2478 2.12809 26.5639 1.6551 26.9623 1.25668C27.3607 0.858266 27.8337 0.542224 28.3543 0.326602C28.8748 0.11098 29.4327 -1.11069e-08 29.9962 0C30.5596 1.11069e-08 31.1176 0.110979 31.6381 0.326602C32.1587 0.542224 32.6317 0.858266 33.0301 1.25668L58.7411 26.9677C59.1402 27.3658 59.4568 27.8386 59.6728 28.3592C59.8888 28.8798 60 29.438 60 30.0016C60 30.5653 59.8888 31.1234 59.6728 31.644C59.4568 32.1646 59.1402 32.6375 58.7411 33.0355L33.0301 58.7465C32.632 59.1456 32.1592 59.4622 31.6386 59.6782C31.118 59.8943 30.5598 60.0055 29.9962 60.0055C29.4325 60.0055 28.8744 59.8943 28.3538 59.6782C27.8332 59.4622 27.3604 59.1456 26.9623 58.7465Z" fill="white"/>
<path fill-rule="evenodd" clip-rule="evenodd" d="M0 30.0003C0 28.8638 0.451473 27.7738 1.2551 26.9702C2.05872 26.1666 3.14867 25.7151 4.28517 25.7151H47.1369C48.2734 25.7151 49.3633 26.1666 50.1669 26.9702C50.9706 27.7738 51.422 28.8638 51.422 30.0003C51.422 31.1368 50.9706 32.2267 50.1669 33.0303C49.3633 33.834 48.2734 34.2854 47.1369 34.2854H4.28517C3.14867 34.2854 2.05872 33.834 1.2551 33.0303C0.451473 32.2267 0 31.1368 0 30.0003Z" fill="white"/>
</svg>
