<svg width="100" height="110" viewBox="0 0 100 110" fill="none" xmlns="http://www.w3.org/2000/svg">
<path d="M20 5L5 25V95C5 97.6522 6.05357 100.196 7.92893 102.071C9.8043 103.946 12.3478 105 15 105H85C87.6522 105 90.1957 103.946 92.0711 102.071C93.9464 100.196 95 97.6522 95 95V25L80 5H20Z" stroke="white" stroke-width="9" stroke-linecap="round" stroke-linejoin="round"/>
<path d="M5 25.0171H95" stroke="white" stroke-width="9" stroke-linecap="round" stroke-linejoin="round"/>
<path d="M70 45.0342C70 50.3385 67.8929 55.4256 64.1421 59.1763C60.3914 62.927 55.3043 65.0342 50 65.0342C44.6957 65.0342 39.6086 62.927 35.8579 59.1763C32.1071 55.4256 30 50.3385 30 45.0342" stroke="white" stroke-width="9" stroke-linecap="round" stroke-linejoin="round"/>
</svg>
