<svg width="1567" height="349" viewBox="0 0 1567 349" fill="none" xmlns="http://www.w3.org/2000/svg">
<rect width="30.1205" height="30.1205" rx="15.0602" fill="#FFCB63" fill-opacity="0.25"/>
<rect x="68.1206" width="30.1205" height="30.1205" rx="15.0602" fill="#FFCB63" fill-opacity="0.25"/>
<rect x="136.241" width="30.1205" height="30.1205" rx="15.0602" fill="#FFCB63" fill-opacity="0.25"/>
<rect y="45" width="30.1205" height="30.1205" rx="15.0602" fill="#FFCB63" fill-opacity="0.25"/>
<rect x="68.1206" y="45" width="30.1205" height="30.1205" rx="15.0602" fill="#FFCB63" fill-opacity="0.25"/>
<rect x="136.241" y="45" width="30.1205" height="30.1205" rx="15.0602" fill="#FFCB63" fill-opacity="0.25"/>
<rect x="200" width="30.1205" height="30.1205" rx="15.0602" fill="#FFCB63" fill-opacity="0.25"/>
<rect x="268.121" width="30.1205" height="30.1205" rx="15.0602" fill="#FFCB63" fill-opacity="0.25"/>
<rect x="336.241" width="30.1205" height="30.1205" rx="15.0602" fill="#FFCB63" fill-opacity="0.25"/>
<rect x="200" y="45" width="30.1205" height="30.1205" rx="15.0602" fill="#FFCB63" fill-opacity="0.25"/>
<rect x="268.121" y="45" width="30.1205" height="30.1205" rx="15.0602" fill="#FFCB63" fill-opacity="0.25"/>
<rect x="336.241" y="45" width="30.1205" height="30.1205" rx="15.0602" fill="#FFCB63" fill-opacity="0.25"/>
<rect y="91" width="30.1205" height="30.1205" rx="15.0602" fill="#FFCB63" fill-opacity="0.25"/>
<rect x="68.1206" y="91" width="30.1205" height="30.1205" rx="15.0602" fill="#FFCB63" fill-opacity="0.25"/>
<rect x="136.241" y="91" width="30.1205" height="30.1205" rx="15.0602" fill="#FFCB63" fill-opacity="0.25"/>
<rect y="136" width="30.1205" height="30.1205" rx="15.0602" fill="#FFCB63" fill-opacity="0.25"/>
<rect x="68.1206" y="136" width="30.1205" height="30.1205" rx="15.0602" fill="#FFCB63" fill-opacity="0.25"/>
<rect x="136.241" y="136" width="30.1205" height="30.1205" rx="15.0602" fill="#FFCB63" fill-opacity="0.25"/>
<rect x="200" y="91" width="30.1205" height="30.1205" rx="15.0602" fill="#FFCB63" fill-opacity="0.25"/>
<rect x="268.121" y="91" width="30.1205" height="30.1205" rx="15.0602" fill="#FFCB63" fill-opacity="0.25"/>
<rect x="336.241" y="91" width="30.1205" height="30.1205" rx="15.0602" fill="#FFCB63" fill-opacity="0.25"/>
<rect x="200" y="136" width="30.1205" height="30.1205" rx="15.0602" fill="#FFCB63" fill-opacity="0.25"/>
<rect x="268.121" y="136" width="30.1205" height="30.1205" rx="15.0602" fill="#FFCB63" fill-opacity="0.25"/>
<rect x="336.241" y="136" width="30.1205" height="30.1205" rx="15.0602" fill="#FFCB63" fill-opacity="0.25"/>
<rect y="182" width="30.1205" height="30.1205" rx="15.0602" fill="#FFCB63" fill-opacity="0.25"/>
<rect x="68.1206" y="182" width="30.1205" height="30.1205" rx="15.0602" fill="#FFCB63" fill-opacity="0.25"/>
<rect x="136.241" y="182" width="30.1205" height="30.1205" rx="15.0602" fill="#FFCB63" fill-opacity="0.25"/>
<rect y="227" width="30.1205" height="30.1205" rx="15.0602" fill="#FFCB63" fill-opacity="0.25"/>
<rect x="68.1206" y="227" width="30.1205" height="30.1205" rx="15.0602" fill="#FFCB63" fill-opacity="0.25"/>
<rect x="136.241" y="227" width="30.1205" height="30.1205" rx="15.0602" fill="#FFCB63" fill-opacity="0.25"/>
<rect x="200" y="182" width="30.1205" height="30.1205" rx="15.0602" fill="#FFCB63" fill-opacity="0.25"/>
<rect x="268.121" y="182" width="30.1205" height="30.1205" rx="15.0602" fill="#FFCB63" fill-opacity="0.25"/>
<rect x="336.241" y="182" width="30.1205" height="30.1205" rx="15.0602" fill="#FFCB63" fill-opacity="0.25"/>
<rect x="200" y="227" width="30.1205" height="30.1205" rx="15.0602" fill="#FFCB63" fill-opacity="0.25"/>
<rect x="268.121" y="227" width="30.1205" height="30.1205" rx="15.0602" fill="#FFCB63" fill-opacity="0.25"/>
<rect x="336.241" y="227" width="30.1205" height="30.1205" rx="15.0602" fill="#FFCB63" fill-opacity="0.25"/>
<rect y="273" width="30.1205" height="30.1205" rx="15.0602" fill="#FFCB63" fill-opacity="0.25"/>
<rect x="68.1206" y="273" width="30.1205" height="30.1205" rx="15.0602" fill="#FFCB63" fill-opacity="0.25"/>
<rect x="136.241" y="273" width="30.1205" height="30.1205" rx="15.0602" fill="#FFCB63" fill-opacity="0.25"/>
<rect y="318" width="30.1205" height="30.1205" rx="15.0602" fill="#FFCB63" fill-opacity="0.25"/>
<rect x="68.1206" y="318" width="30.1205" height="30.1205" rx="15.0602" fill="#FFCB63" fill-opacity="0.25"/>
<rect x="136.241" y="318" width="30.1205" height="30.1205" rx="15.0602" fill="#FFCB63" fill-opacity="0.25"/>
<rect x="200" y="273" width="30.1205" height="30.1205" rx="15.0602" fill="#FFCB63" fill-opacity="0.25"/>
<rect x="268.121" y="273" width="30.1205" height="30.1205" rx="15.0602" fill="#FFCB63" fill-opacity="0.25"/>
<rect x="336.241" y="273" width="30.1205" height="30.1205" rx="15.0602" fill="#FFCB63" fill-opacity="0.25"/>
<rect x="200" y="318" width="30.1205" height="30.1205" rx="15.0602" fill="#FFCB63" fill-opacity="0.25"/>
<rect x="268.121" y="318" width="30.1205" height="30.1205" rx="15.0602" fill="#FFCB63" fill-opacity="0.25"/>
<rect x="336.241" y="318" width="30.1205" height="30.1205" rx="15.0602" fill="#FFCB63" fill-opacity="0.25"/>
<rect x="400" width="30.1205" height="30.1205" rx="15.0602" fill="#FFCB63" fill-opacity="0.25"/>
<rect x="468.121" width="30.1205" height="30.1205" rx="15.0602" fill="#FFCB63" fill-opacity="0.25"/>
<rect x="536.241" width="30.1205" height="30.1205" rx="15.0602" fill="#FFCB63" fill-opacity="0.25"/>
<rect x="400" y="45" width="30.1205" height="30.1205" rx="15.0602" fill="#FFCB63" fill-opacity="0.25"/>
<rect x="468.121" y="45" width="30.1205" height="30.1205" rx="15.0602" fill="#FFCB63" fill-opacity="0.25"/>
<rect x="536.241" y="45" width="30.1205" height="30.1205" rx="15.0602" fill="#FFCB63" fill-opacity="0.25"/>
<rect x="600" width="30.1205" height="30.1205" rx="15.0602" fill="#FFCB63" fill-opacity="0.25"/>
<rect x="668.121" width="30.1205" height="30.1205" rx="15.0602" fill="#FFCB63" fill-opacity="0.25"/>
<rect x="736.241" width="30.1205" height="30.1205" rx="15.0602" fill="#FFCB63" fill-opacity="0.25"/>
<rect x="600" y="45" width="30.1205" height="30.1205" rx="15.0602" fill="#FFCB63" fill-opacity="0.25"/>
<rect x="668.121" y="45" width="30.1205" height="30.1205" rx="15.0602" fill="#FFCB63" fill-opacity="0.25"/>
<rect x="736.241" y="45" width="30.1205" height="30.1205" rx="15.0602" fill="#FFCB63" fill-opacity="0.25"/>
<rect x="400" y="91" width="30.1205" height="30.1205" rx="15.0602" fill="#FFCB63" fill-opacity="0.25"/>
<rect x="468.121" y="91" width="30.1205" height="30.1205" rx="15.0602" fill="#FFCB63" fill-opacity="0.25"/>
<rect x="536.241" y="91" width="30.1205" height="30.1205" rx="15.0602" fill="#FFCB63" fill-opacity="0.25"/>
<rect x="400" y="136" width="30.1205" height="30.1205" rx="15.0602" fill="#FFCB63" fill-opacity="0.25"/>
<rect x="468.121" y="136" width="30.1205" height="30.1205" rx="15.0602" fill="#FFCB63" fill-opacity="0.25"/>
<rect x="536.241" y="136" width="30.1205" height="30.1205" rx="15.0602" fill="#FFCB63" fill-opacity="0.25"/>
<rect x="600" y="91" width="30.1205" height="30.1205" rx="15.0602" fill="#FFCB63" fill-opacity="0.25"/>
<rect x="668.121" y="91" width="30.1205" height="30.1205" rx="15.0602" fill="#FFCB63" fill-opacity="0.25"/>
<rect x="736.241" y="91" width="30.1205" height="30.1205" rx="15.0602" fill="#FFCB63" fill-opacity="0.25"/>
<rect x="600" y="136" width="30.1205" height="30.1205" rx="15.0602" fill="#FFCB63" fill-opacity="0.25"/>
<rect x="668.121" y="136" width="30.1205" height="30.1205" rx="15.0602" fill="#FFCB63" fill-opacity="0.25"/>
<rect x="736.241" y="136" width="30.1205" height="30.1205" rx="15.0602" fill="#FFCB63" fill-opacity="0.25"/>
<rect x="400" y="182" width="30.1205" height="30.1205" rx="15.0602" fill="#FFCB63" fill-opacity="0.25"/>
<rect x="468.121" y="182" width="30.1205" height="30.1205" rx="15.0602" fill="#FFCB63" fill-opacity="0.25"/>
<rect x="536.241" y="182" width="30.1205" height="30.1205" rx="15.0602" fill="#FFCB63" fill-opacity="0.25"/>
<rect x="400" y="227" width="30.1205" height="30.1205" rx="15.0602" fill="#FFCB63" fill-opacity="0.25"/>
<rect x="468.121" y="227" width="30.1205" height="30.1205" rx="15.0602" fill="#FFCB63" fill-opacity="0.25"/>
<rect x="536.241" y="227" width="30.1205" height="30.1205" rx="15.0602" fill="#FFCB63" fill-opacity="0.25"/>
<rect x="600" y="182" width="30.1205" height="30.1205" rx="15.0602" fill="#FFCB63" fill-opacity="0.25"/>
<rect x="668.121" y="182" width="30.1205" height="30.1205" rx="15.0602" fill="#FFCB63" fill-opacity="0.25"/>
<rect x="736.241" y="182" width="30.1205" height="30.1205" rx="15.0602" fill="#FFCB63" fill-opacity="0.25"/>
<rect x="600" y="227" width="30.1205" height="30.1205" rx="15.0602" fill="#FFCB63" fill-opacity="0.25"/>
<rect x="668.121" y="227" width="30.1205" height="30.1205" rx="15.0602" fill="#FFCB63" fill-opacity="0.25"/>
<rect x="736.241" y="227" width="30.1205" height="30.1205" rx="15.0602" fill="#FFCB63" fill-opacity="0.25"/>
<rect x="400" y="273" width="30.1205" height="30.1205" rx="15.0602" fill="#FFCB63" fill-opacity="0.25"/>
<rect x="468.121" y="273" width="30.1205" height="30.1205" rx="15.0602" fill="#FFCB63" fill-opacity="0.25"/>
<rect x="536.241" y="273" width="30.1205" height="30.1205" rx="15.0602" fill="#FFCB63" fill-opacity="0.25"/>
<rect x="400" y="318" width="30.1205" height="30.1205" rx="15.0602" fill="#FFCB63" fill-opacity="0.25"/>
<rect x="468.121" y="318" width="30.1205" height="30.1205" rx="15.0602" fill="#FFCB63" fill-opacity="0.25"/>
<rect x="536.241" y="318" width="30.1205" height="30.1205" rx="15.0602" fill="#FFCB63" fill-opacity="0.25"/>
<rect x="600" y="273" width="30.1205" height="30.1205" rx="15.0602" fill="#FFCB63" fill-opacity="0.25"/>
<rect x="668.121" y="273" width="30.1205" height="30.1205" rx="15.0602" fill="#FFCB63" fill-opacity="0.25"/>
<rect x="736.241" y="273" width="30.1205" height="30.1205" rx="15.0602" fill="#FFCB63" fill-opacity="0.25"/>
<rect x="600" y="318" width="30.1205" height="30.1205" rx="15.0602" fill="#FFCB63" fill-opacity="0.25"/>
<rect x="668.121" y="318" width="30.1205" height="30.1205" rx="15.0602" fill="#FFCB63" fill-opacity="0.25"/>
<rect x="736.241" y="318" width="30.1205" height="30.1205" rx="15.0602" fill="#FFCB63" fill-opacity="0.25"/>
<rect x="800" width="30.1205" height="30.1205" rx="15.0602" fill="#FFCB63" fill-opacity="0.25"/>
<rect x="868.121" width="30.1205" height="30.1205" rx="15.0602" fill="#FFCB63" fill-opacity="0.25"/>
<rect x="936.241" width="30.1205" height="30.1205" rx="15.0602" fill="#FFCB63" fill-opacity="0.25"/>
<rect x="800" y="45" width="30.1205" height="30.1205" rx="15.0602" fill="#FFCB63" fill-opacity="0.25"/>
<rect x="868.121" y="45" width="30.1205" height="30.1205" rx="15.0602" fill="#FFCB63" fill-opacity="0.25"/>
<rect x="936.241" y="45" width="30.1205" height="30.1205" rx="15.0602" fill="#FFCB63" fill-opacity="0.25"/>
<rect x="1000" width="30.1205" height="30.1205" rx="15.0602" fill="#FFCB63" fill-opacity="0.25"/>
<rect x="1068.12" width="30.1205" height="30.1205" rx="15.0602" fill="#FFCB63" fill-opacity="0.25"/>
<rect x="1136.24" width="30.1205" height="30.1205" rx="15.0602" fill="#FFCB63" fill-opacity="0.25"/>
<rect x="1000" y="45" width="30.1205" height="30.1205" rx="15.0602" fill="#FFCB63" fill-opacity="0.25"/>
<rect x="1068.12" y="45" width="30.1205" height="30.1205" rx="15.0602" fill="#FFCB63" fill-opacity="0.25"/>
<rect x="1136.24" y="45" width="30.1205" height="30.1205" rx="15.0602" fill="#FFCB63" fill-opacity="0.25"/>
<rect x="800" y="91" width="30.1205" height="30.1205" rx="15.0602" fill="#FFCB63" fill-opacity="0.25"/>
<rect x="868.121" y="91" width="30.1205" height="30.1205" rx="15.0602" fill="#FFCB63" fill-opacity="0.25"/>
<rect x="936.241" y="91" width="30.1205" height="30.1205" rx="15.0602" fill="#FFCB63" fill-opacity="0.25"/>
<rect x="800" y="136" width="30.1205" height="30.1205" rx="15.0602" fill="#FFCB63" fill-opacity="0.25"/>
<rect x="868.121" y="136" width="30.1205" height="30.1205" rx="15.0602" fill="#FFCB63" fill-opacity="0.25"/>
<rect x="936.241" y="136" width="30.1205" height="30.1205" rx="15.0602" fill="#FFCB63" fill-opacity="0.25"/>
<rect x="1000" y="91" width="30.1205" height="30.1205" rx="15.0602" fill="#FFCB63" fill-opacity="0.25"/>
<rect x="1068.12" y="91" width="30.1205" height="30.1205" rx="15.0602" fill="#FFCB63" fill-opacity="0.25"/>
<rect x="1136.24" y="91" width="30.1205" height="30.1205" rx="15.0602" fill="#FFCB63" fill-opacity="0.25"/>
<rect x="1000" y="136" width="30.1205" height="30.1205" rx="15.0602" fill="#FFCB63" fill-opacity="0.25"/>
<rect x="1068.12" y="136" width="30.1205" height="30.1205" rx="15.0602" fill="#FFCB63" fill-opacity="0.25"/>
<rect x="1136.24" y="136" width="30.1205" height="30.1205" rx="15.0602" fill="#FFCB63" fill-opacity="0.25"/>
<rect x="800" y="182" width="30.1205" height="30.1205" rx="15.0602" fill="#FFCB63" fill-opacity="0.25"/>
<rect x="868.121" y="182" width="30.1205" height="30.1205" rx="15.0602" fill="#FFCB63" fill-opacity="0.25"/>
<rect x="936.241" y="182" width="30.1205" height="30.1205" rx="15.0602" fill="#FFCB63" fill-opacity="0.25"/>
<rect x="800" y="227" width="30.1205" height="30.1205" rx="15.0602" fill="#FFCB63" fill-opacity="0.25"/>
<rect x="868.121" y="227" width="30.1205" height="30.1205" rx="15.0602" fill="#FFCB63" fill-opacity="0.25"/>
<rect x="936.241" y="227" width="30.1205" height="30.1205" rx="15.0602" fill="#FFCB63" fill-opacity="0.25"/>
<rect x="1000" y="182" width="30.1205" height="30.1205" rx="15.0602" fill="#FFCB63" fill-opacity="0.25"/>
<rect x="1068.12" y="182" width="30.1205" height="30.1205" rx="15.0602" fill="#FFCB63" fill-opacity="0.25"/>
<rect x="1136.24" y="182" width="30.1205" height="30.1205" rx="15.0602" fill="#FFCB63" fill-opacity="0.25"/>
<rect x="1000" y="227" width="30.1205" height="30.1205" rx="15.0602" fill="#FFCB63" fill-opacity="0.25"/>
<rect x="1068.12" y="227" width="30.1205" height="30.1205" rx="15.0602" fill="#FFCB63" fill-opacity="0.25"/>
<rect x="1136.24" y="227" width="30.1205" height="30.1205" rx="15.0602" fill="#FFCB63" fill-opacity="0.25"/>
<rect x="800" y="273" width="30.1205" height="30.1205" rx="15.0602" fill="#FFCB63" fill-opacity="0.25"/>
<rect x="868.121" y="273" width="30.1205" height="30.1205" rx="15.0602" fill="#FFCB63" fill-opacity="0.25"/>
<rect x="936.241" y="273" width="30.1205" height="30.1205" rx="15.0602" fill="#FFCB63" fill-opacity="0.25"/>
<rect x="800" y="318" width="30.1205" height="30.1205" rx="15.0602" fill="#FFCB63" fill-opacity="0.25"/>
<rect x="868.121" y="318" width="30.1205" height="30.1205" rx="15.0602" fill="#FFCB63" fill-opacity="0.25"/>
<rect x="936.241" y="318" width="30.1205" height="30.1205" rx="15.0602" fill="#FFCB63" fill-opacity="0.25"/>
<rect x="1000" y="273" width="30.1205" height="30.1205" rx="15.0602" fill="#FFCB63" fill-opacity="0.25"/>
<rect x="1068.12" y="273" width="30.1205" height="30.1205" rx="15.0602" fill="#FFCB63" fill-opacity="0.25"/>
<rect x="1136.24" y="273" width="30.1205" height="30.1205" rx="15.0602" fill="#FFCB63" fill-opacity="0.25"/>
<rect x="1000" y="318" width="30.1205" height="30.1205" rx="15.0602" fill="#FFCB63" fill-opacity="0.25"/>
<rect x="1068.12" y="318" width="30.1205" height="30.1205" rx="15.0602" fill="#FFCB63" fill-opacity="0.25"/>
<rect x="1136.24" y="318" width="30.1205" height="30.1205" rx="15.0602" fill="#FFCB63" fill-opacity="0.25"/>
<rect x="1200" width="30.1205" height="30.1205" rx="15.0602" fill="#FFCB63" fill-opacity="0.25"/>
<rect x="1268.12" width="30.1205" height="30.1205" rx="15.0602" fill="#FFCB63" fill-opacity="0.25"/>
<rect x="1336.24" width="30.1205" height="30.1205" rx="15.0602" fill="#FFCB63" fill-opacity="0.25"/>
<rect x="1200" y="45" width="30.1205" height="30.1205" rx="15.0602" fill="#FFCB63" fill-opacity="0.25"/>
<rect x="1268.12" y="45" width="30.1205" height="30.1205" rx="15.0602" fill="#FFCB63" fill-opacity="0.25"/>
<rect x="1336.24" y="45" width="30.1205" height="30.1205" rx="15.0602" fill="#FFCB63" fill-opacity="0.25"/>
<rect x="1400" width="30.1205" height="30.1205" rx="15.0602" fill="#FFCB63" fill-opacity="0.25"/>
<rect x="1468.12" width="30.1205" height="30.1205" rx="15.0602" fill="#FFCB63" fill-opacity="0.25"/>
<rect x="1536.24" width="30.1205" height="30.1205" rx="15.0602" fill="#FFCB63" fill-opacity="0.25"/>
<rect x="1400" y="45" width="30.1205" height="30.1205" rx="15.0602" fill="#FFCB63" fill-opacity="0.25"/>
<rect x="1468.12" y="45" width="30.1205" height="30.1205" rx="15.0602" fill="#FFCB63" fill-opacity="0.25"/>
<rect x="1536.24" y="45" width="30.1205" height="30.1205" rx="15.0602" fill="#FFCB63" fill-opacity="0.25"/>
<rect x="1200" y="91" width="30.1205" height="30.1205" rx="15.0602" fill="#FFCB63" fill-opacity="0.25"/>
<rect x="1268.12" y="91" width="30.1205" height="30.1205" rx="15.0602" fill="#FFCB63" fill-opacity="0.25"/>
<rect x="1336.24" y="91" width="30.1205" height="30.1205" rx="15.0602" fill="#FFCB63" fill-opacity="0.25"/>
<rect x="1200" y="136" width="30.1205" height="30.1205" rx="15.0602" fill="#FFCB63" fill-opacity="0.25"/>
<rect x="1268.12" y="136" width="30.1205" height="30.1205" rx="15.0602" fill="#FFCB63" fill-opacity="0.25"/>
<rect x="1336.24" y="136" width="30.1205" height="30.1205" rx="15.0602" fill="#FFCB63" fill-opacity="0.25"/>
<rect x="1400" y="91" width="30.1205" height="30.1205" rx="15.0602" fill="#FFCB63" fill-opacity="0.25"/>
<rect x="1468.12" y="91" width="30.1205" height="30.1205" rx="15.0602" fill="#FFCB63" fill-opacity="0.25"/>
<rect x="1536.24" y="91" width="30.1205" height="30.1205" rx="15.0602" fill="#FFCB63" fill-opacity="0.25"/>
<rect x="1400" y="136" width="30.1205" height="30.1205" rx="15.0602" fill="#FFCB63" fill-opacity="0.25"/>
<rect x="1468.12" y="136" width="30.1205" height="30.1205" rx="15.0602" fill="#FFCB63" fill-opacity="0.25"/>
<rect x="1536.24" y="136" width="30.1205" height="30.1205" rx="15.0602" fill="#FFCB63" fill-opacity="0.25"/>
<rect x="1200" y="182" width="30.1205" height="30.1205" rx="15.0602" fill="#FFCB63" fill-opacity="0.25"/>
<rect x="1268.12" y="182" width="30.1205" height="30.1205" rx="15.0602" fill="#FFCB63" fill-opacity="0.25"/>
<rect x="1336.24" y="182" width="30.1205" height="30.1205" rx="15.0602" fill="#FFCB63" fill-opacity="0.25"/>
<rect x="1200" y="227" width="30.1205" height="30.1205" rx="15.0602" fill="#FFCB63" fill-opacity="0.25"/>
<rect x="1268.12" y="227" width="30.1205" height="30.1205" rx="15.0602" fill="#FFCB63" fill-opacity="0.25"/>
<rect x="1336.24" y="227" width="30.1205" height="30.1205" rx="15.0602" fill="#FFCB63" fill-opacity="0.25"/>
<rect x="1400" y="182" width="30.1205" height="30.1205" rx="15.0602" fill="#FFCB63" fill-opacity="0.25"/>
<rect x="1468.12" y="182" width="30.1205" height="30.1205" rx="15.0602" fill="#FFCB63" fill-opacity="0.25"/>
<rect x="1536.24" y="182" width="30.1205" height="30.1205" rx="15.0602" fill="#FFCB63" fill-opacity="0.25"/>
<rect x="1400" y="227" width="30.1205" height="30.1205" rx="15.0602" fill="#FFCB63" fill-opacity="0.25"/>
<rect x="1468.12" y="227" width="30.1205" height="30.1205" rx="15.0602" fill="#FFCB63" fill-opacity="0.25"/>
<rect x="1536.24" y="227" width="30.1205" height="30.1205" rx="15.0602" fill="#FFCB63" fill-opacity="0.25"/>
<rect x="1200" y="273" width="30.1205" height="30.1205" rx="15.0602" fill="#FFCB63" fill-opacity="0.25"/>
<rect x="1268.12" y="273" width="30.1205" height="30.1205" rx="15.0602" fill="#FFCB63" fill-opacity="0.25"/>
<rect x="1336.24" y="273" width="30.1205" height="30.1205" rx="15.0602" fill="#FFCB63" fill-opacity="0.25"/>
<rect x="1200" y="318" width="30.1205" height="30.1205" rx="15.0602" fill="#FFCB63" fill-opacity="0.25"/>
<rect x="1268.12" y="318" width="30.1205" height="30.1205" rx="15.0602" fill="#FFCB63" fill-opacity="0.25"/>
<rect x="1336.24" y="318" width="30.1205" height="30.1205" rx="15.0602" fill="#FFCB63" fill-opacity="0.25"/>
<rect x="1400" y="273" width="30.1205" height="30.1205" rx="15.0602" fill="#FFCB63" fill-opacity="0.25"/>
<rect x="1468.12" y="273" width="30.1205" height="30.1205" rx="15.0602" fill="#FFCB63" fill-opacity="0.25"/>
<rect x="1536.24" y="273" width="30.1205" height="30.1205" rx="15.0602" fill="#FFCB63" fill-opacity="0.25"/>
<rect x="1400" y="318" width="30.1205" height="30.1205" rx="15.0602" fill="#FFCB63" fill-opacity="0.25"/>
<rect x="1468.12" y="318" width="30.1205" height="30.1205" rx="15.0602" fill="#FFCB63" fill-opacity="0.25"/>
<rect x="1536.24" y="318" width="30.1205" height="30.1205" rx="15.0602" fill="#FFCB63" fill-opacity="0.25"/>
</svg>
